<svg width="48" height="48" viewBox="0 0 48 48" fill="none" xmlns="http://www.w3.org/2000/svg">
<path d="M24 24C25.1 24 26.042 23.608 26.826 22.824C27.61 22.04 28.0013 21.0987 28 20C28 18.9 27.608 17.958 26.824 17.174C26.04 16.39 25.0987 15.9987 24 16C22.9 16 21.958 16.392 21.174 17.176C20.39 17.96 19.9987 18.9013 20 20C20 21.1 20.392 22.042 21.176 22.826C21.96 23.61 22.9013 24.0013 24 24ZM24 44C18.6333 39.4333 14.6253 35.192 11.976 31.276C9.32667 27.36 8.00133 23.7347 8 20.4C8 15.4 9.60867 11.4167 12.826 8.45C16.0433 5.48333 19.768 4 24 4C28.2333 4 31.9587 5.48333 35.176 8.45C38.3933 11.4167 40.0013 15.4 40 20.4C40 23.7333 38.6747 27.3587 36.024 31.276C33.3733 35.1933 29.3653 39.4347 24 44Z" fill="#1D70B8"/>
</svg>
