<svg width="48" height="48" viewBox="0 0 48 48" fill="none" xmlns="http://www.w3.org/2000/svg">
<path d="M24 6.00001C14.92 6.00001 6.68 9.56001 0.58 15.34C0.22 15.7 0 16.2 0 16.76C0 17.32 0.22 17.82 0.58 18.18L5.54 23.14C5.91462 23.5104 6.41912 23.7198 6.94593 23.7235C7.47274 23.7273 7.98016 23.5251 8.36 23.16C9.94 21.68 11.74 20.44 13.68 19.46C14.34 19.14 14.8 18.46 14.8 17.66V11.46C17.7 10.5 20.78 10 24 10C27.18 10 30.28 10.5 33.18 11.44V17.64C33.18 18.42 33.64 19.12 34.3 19.44C36.26 20.42 38 21.68 39.64 23.14C40 23.5 40.5 23.7 41 23.7C41.6 23.7 42.1 23.48 42.46 23.12L47.42 18.16C47.78 17.8 48 17.3 48 16.74C48 16.18 47.76 15.7 47.4 15.34C41.0879 9.33873 32.7097 5.99461 24 6.00001ZM18 14V20C18 20 6 30 6 36V44H42V36C42 30 30 20 30 20V14H26V18H22V14H18ZM24 24C26.1217 24 28.1566 24.8429 29.6569 26.3432C31.1571 27.8434 32 29.8783 32 32C32 34.1217 31.1571 36.1566 29.6569 37.6569C28.1566 39.1572 26.1217 40 24 40C21.8783 40 19.8434 39.1572 18.3431 37.6569C16.8429 36.1566 16 34.1217 16 32C16 29.8783 16.8429 27.8434 18.3431 26.3432C19.8434 24.8429 21.8783 24 24 24ZM24 27C22.6739 27 21.4021 27.5268 20.4645 28.4645C19.5268 29.4022 19 30.6739 19 32C19 33.3261 19.5268 34.5979 20.4645 35.5355C21.4021 36.4732 22.6739 37 24 37C25.3261 37 26.5979 36.4732 27.5355 35.5355C28.4732 34.5979 29 33.3261 29 32C29 30.6739 28.4732 29.4022 27.5355 28.4645C26.5979 27.5268 25.3261 27 24 27Z" fill="#1D70B8"/>
</svg>
