<svg width="48" height="48" viewBox="0 0 48 48" fill="none" xmlns="http://www.w3.org/2000/svg">
<path d="M8 40C6.9 40 5.958 39.608 5.174 38.824C4.39 38.04 3.99867 37.0987 4 36V12C4 10.9 4.392 9.958 5.176 9.174C5.96 8.39 6.90134 7.99867 8 8H40C41.1 8 42.042 8.392 42.826 9.176C43.61 9.96 44.0013 10.9013 44 12V36C44 37.1 43.608 38.042 42.824 38.826C42.04 39.61 41.0987 40.0013 40 40H8ZM24 25.65C24.1667 25.65 24.342 25.6247 24.526 25.574C24.71 25.5233 24.8847 25.4487 25.05 25.35L39.2 16.5C39.4667 16.3333 39.6667 16.1247 39.8 15.874C39.9333 15.6233 40 15.3487 40 15.05C40 14.3833 39.7167 13.8833 39.15 13.55C38.5833 13.2167 38 13.2333 37.4 13.6L24 22L10.6 13.6C10 13.2333 9.41667 13.2253 8.85 13.576C8.28334 13.9267 8 14.418 8 15.05C8 15.3833 8.06667 15.6753 8.2 15.926C8.33334 16.1767 8.53334 16.368 8.8 16.5L22.95 25.35C23.1167 25.45 23.292 25.5253 23.476 25.576C23.66 25.6267 23.8347 25.6513 24 25.65Z" fill="#1D70B8"/>
</svg>
