<svg width="48" height="48" viewBox="0 0 48 48" fill="none" xmlns="http://www.w3.org/2000/svg">
<path d="M4.00002 11.5C4.00002 10.0413 4.57949 8.64236 5.61094 7.61091C6.64239 6.57946 8.04133 6 9.50002 6H38.5C39.9587 6 41.3577 6.57946 42.3891 7.61091C43.4206 8.64236 44 10.0413 44 11.5V30.5C44 31.9587 43.4206 33.3576 42.3891 34.3891C41.3577 35.4205 39.9587 36 38.5 36H20V34C20.24 33.68 20.46 33.348 20.662 33H38.5C39.88 33 41 31.88 41 30.5V11.5C41 10.12 39.88 9 38.5 9H9.50002C8.12002 9 7.00002 10.12 7.00002 11.5V19.338C5.83151 20.0142 4.81121 20.9188 4.00002 21.998V11.5ZM13.5 14C13.1022 14 12.7207 14.158 12.4394 14.4393C12.1581 14.7206 12 15.1022 12 15.5C12 15.8978 12.1581 16.2794 12.4394 16.5607C12.7207 16.842 13.1022 17 13.5 17H34.5C34.8978 17 35.2794 16.842 35.5607 16.5607C35.842 16.2794 36 15.8978 36 15.5C36 15.1022 35.842 14.7206 35.5607 14.4393C35.2794 14.158 34.8978 14 34.5 14H13.5ZM25.5 24C25.1022 24 24.7207 24.158 24.4394 24.4393C24.1581 24.7206 24 25.1022 24 25.5C24 25.8978 24.1581 26.2794 24.4394 26.5607C24.7207 26.842 25.1022 27 25.5 27H34.5C34.8978 27 35.2794 26.842 35.5607 26.5607C35.842 26.2794 36 25.8978 36 25.5C36 25.1022 35.842 24.7206 35.5607 24.4393C35.2794 24.158 34.8978 24 34.5 24H25.5ZM12 20C9.87803 20 7.84294 20.843 6.34246 22.3434C4.84198 23.8439 3.99902 25.879 3.99902 28.001C3.99902 30.123 4.84198 32.1581 6.34246 33.6586C7.84294 35.159 9.87803 36.002 12 36.002C14.122 36.002 16.1571 35.159 17.6576 33.6586C19.1581 32.1581 20.001 30.123 20.001 28.001C20.001 25.879 19.1581 23.8439 17.6576 22.3434C16.1571 20.843 14.122 20 12 20ZM18 36.002C16.33 37.258 14.252 38.002 12 38.002C9.83626 38.0063 7.72999 37.3057 6.00002 36.006V42.498C6.00002 43.638 7.21002 44.338 8.18002 43.836L8.36002 43.726L12 41.182L15.64 43.726C15.8502 43.8728 16.0946 43.9632 16.3497 43.9887C16.6048 44.0142 16.8622 43.9739 17.0973 43.8716C17.3324 43.7693 17.5373 43.6084 17.6926 43.4044C17.8478 43.2003 17.9482 42.9599 17.984 42.706L18 42.498L18.002 36L18 36.002Z" fill="#1D70B8"/>
</svg>
