<svg width="48" height="48" viewBox="0 0 48 48" fill="none" xmlns="http://www.w3.org/2000/svg">
<path d="M18 42H10C8.9 42 7.958 41.608 7.174 40.824C6.39 40.04 5.99867 39.0987 6 38V24C6 21.5 6.47534 19.158 7.426 16.974C8.37667 14.79 9.65934 12.89 11.274 11.274C12.8913 9.658 14.7913 8.37533 16.974 7.426C19.1567 6.47667 21.4987 6.00133 24 6C26.5 6 28.842 6.47533 31.026 7.426C33.21 8.37667 35.11 9.65933 36.726 11.274C38.342 12.8913 39.6253 14.7913 40.576 16.974C41.5267 19.1567 42.0013 21.4987 42 24V38C42 39.1 41.608 40.042 40.824 40.826C40.04 41.61 39.0987 42.0013 38 42H30V26H38V24C38 20.1 36.6413 16.7913 33.924 14.074C31.2067 11.3567 27.8987 9.99867 24 10C20.1 10 16.7913 11.3587 14.074 14.076C11.3567 16.7933 9.99867 20.1013 10 24V26H18V42ZM14 30H10V38H14V30ZM34 30V38H38V30H34Z" fill="#1D70B8"/>
</svg>
