<svg width="48" height="48" viewBox="0 0 48 48" fill="none" xmlns="http://www.w3.org/2000/svg">
<path d="M9.99998 42C8.29998 42 7.09131 41.242 6.37398 39.726C5.65665 38.21 5.83198 36.8013 6.89998 35.5L18 22V10H16C15.4333 10 14.958 9.80801 14.574 9.42401C14.19 9.04001 13.9986 8.56534 14 8.00001C14 7.43334 14.192 6.95801 14.576 6.57401C14.96 6.19001 15.4346 5.99867 16 6.00001H32C32.5666 6.00001 33.042 6.19201 33.426 6.57601C33.81 6.96001 34.0013 7.43467 34 8.00001C34 8.56667 33.808 9.04201 33.424 9.42601C33.04 9.81001 32.5653 10.0013 32 10H30V22L41.1 35.5C42.1666 36.8 42.342 38.2087 41.626 39.726C40.91 41.2433 39.7013 42.0013 38 42H9.99998ZM9.99998 38H38L26 23.4V10H22V23.4L9.99998 38Z" fill="#1D70B8"/>
</svg>
